<mxfile host="app.diagrams.net" agent="Mozilla/5.0 (Windows NT 10.0; Win64; x64) AppleWebKit/537.36 (KHTML, like Gecko) Chrome/128.0.0.0 Safari/537.36 Edg/128.0.0.0" version="24.7.10">
  <diagram name="Page-1" id="lQEP9xpa4jGumFTDyAzS">
    <mxGraphModel grid="1" page="1" gridSize="10" guides="1" tooltips="1" connect="1" arrows="1" fold="1" pageScale="1" pageWidth="1100" pageHeight="850" math="1" shadow="0">
      <root>
        <mxCell id="0" />
        <mxCell id="1" parent="0" />
        <mxCell id="B-oqDySQUaIhYDxuSMZ8-69" value="" style="group" connectable="0" vertex="1" parent="1">
          <mxGeometry x="150" y="185" width="800" height="480" as="geometry" />
        </mxCell>
        <mxCell id="B-oqDySQUaIhYDxuSMZ8-68" value="" style="whiteSpace=wrap;html=1;fillColor=#f9f7ed;strokeColor=#36393d;" vertex="1" parent="B-oqDySQUaIhYDxuSMZ8-69">
          <mxGeometry width="800" height="480" as="geometry" />
        </mxCell>
        <mxCell id="B-oqDySQUaIhYDxuSMZ8-64" value="" style="whiteSpace=wrap;html=1;fillColor=#cce5ff;strokeColor=#36393d;" vertex="1" parent="B-oqDySQUaIhYDxuSMZ8-69">
          <mxGeometry x="400" y="40" width="390" height="430" as="geometry" />
        </mxCell>
        <mxCell id="B-oqDySQUaIhYDxuSMZ8-63" value="" style="whiteSpace=wrap;html=1;fillColor=#ffff88;strokeColor=#36393d;" vertex="1" parent="B-oqDySQUaIhYDxuSMZ8-69">
          <mxGeometry x="10" y="40" width="380" height="430" as="geometry" />
        </mxCell>
        <mxCell id="B-oqDySQUaIhYDxuSMZ8-6" value="p1,p2" style="edgeStyle=orthogonalEdgeStyle;curved=1;rounded=0;orthogonalLoop=1;jettySize=auto;html=1;" edge="1" parent="B-oqDySQUaIhYDxuSMZ8-69" source="B-oqDySQUaIhYDxuSMZ8-1" target="B-oqDySQUaIhYDxuSMZ8-5">
          <mxGeometry relative="1" as="geometry">
            <mxPoint as="offset" />
          </mxGeometry>
        </mxCell>
        <mxCell id="B-oqDySQUaIhYDxuSMZ8-1" value="Ini&lt;span style=&quot;background-color: initial;&quot;&gt;/000&lt;/span&gt;" style="ellipse;whiteSpace=wrap;html=1;aspect=fixed;" vertex="1" parent="B-oqDySQUaIhYDxuSMZ8-69">
          <mxGeometry x="160" y="120" width="80" height="80" as="geometry" />
        </mxCell>
        <mxCell id="B-oqDySQUaIhYDxuSMZ8-8" value="" style="edgeStyle=orthogonalEdgeStyle;curved=1;rounded=0;orthogonalLoop=1;jettySize=auto;html=1;" edge="1" parent="B-oqDySQUaIhYDxuSMZ8-69" source="B-oqDySQUaIhYDxuSMZ8-5" target="B-oqDySQUaIhYDxuSMZ8-7">
          <mxGeometry relative="1" as="geometry" />
        </mxCell>
        <mxCell id="B-oqDySQUaIhYDxuSMZ8-13" value="p1" style="edgeLabel;html=1;align=center;verticalAlign=middle;resizable=0;points=[];" connectable="0" vertex="1" parent="B-oqDySQUaIhYDxuSMZ8-8">
          <mxGeometry x="0.1871" y="2" relative="1" as="geometry">
            <mxPoint x="-2" y="-7" as="offset" />
          </mxGeometry>
        </mxCell>
        <mxCell id="B-oqDySQUaIhYDxuSMZ8-15" value="" style="edgeStyle=orthogonalEdgeStyle;curved=1;rounded=0;orthogonalLoop=1;jettySize=auto;html=1;" edge="1" parent="B-oqDySQUaIhYDxuSMZ8-69" source="B-oqDySQUaIhYDxuSMZ8-5" target="B-oqDySQUaIhYDxuSMZ8-14">
          <mxGeometry relative="1" as="geometry" />
        </mxCell>
        <mxCell id="B-oqDySQUaIhYDxuSMZ8-16" value="p2" style="edgeLabel;html=1;align=center;verticalAlign=middle;resizable=0;points=[];" connectable="0" vertex="1" parent="B-oqDySQUaIhYDxuSMZ8-15">
          <mxGeometry x="-0.1871" relative="1" as="geometry">
            <mxPoint y="17" as="offset" />
          </mxGeometry>
        </mxCell>
        <mxCell id="B-oqDySQUaIhYDxuSMZ8-5" value="L1_On/100" style="ellipse;whiteSpace=wrap;html=1;aspect=fixed;" vertex="1" parent="B-oqDySQUaIhYDxuSMZ8-69">
          <mxGeometry x="160" y="280" width="80" height="80" as="geometry" />
        </mxCell>
        <mxCell id="B-oqDySQUaIhYDxuSMZ8-17" style="edgeStyle=orthogonalEdgeStyle;curved=1;rounded=0;orthogonalLoop=1;jettySize=auto;html=1;exitX=0.5;exitY=0;exitDx=0;exitDy=0;entryX=0;entryY=0.5;entryDx=0;entryDy=0;" edge="1" parent="B-oqDySQUaIhYDxuSMZ8-69" source="B-oqDySQUaIhYDxuSMZ8-7" target="B-oqDySQUaIhYDxuSMZ8-1">
          <mxGeometry relative="1" as="geometry" />
        </mxCell>
        <mxCell id="B-oqDySQUaIhYDxuSMZ8-19" value="p1,p2" style="edgeLabel;html=1;align=center;verticalAlign=middle;resizable=0;points=[];" connectable="0" vertex="1" parent="B-oqDySQUaIhYDxuSMZ8-17">
          <mxGeometry x="-0.3931" y="-6" relative="1" as="geometry">
            <mxPoint as="offset" />
          </mxGeometry>
        </mxCell>
        <mxCell id="B-oqDySQUaIhYDxuSMZ8-7" value="L2_On/010" style="ellipse;whiteSpace=wrap;html=1;" vertex="1" parent="B-oqDySQUaIhYDxuSMZ8-69">
          <mxGeometry x="20" y="350" width="80" height="80" as="geometry" />
        </mxCell>
        <mxCell id="B-oqDySQUaIhYDxuSMZ8-18" style="edgeStyle=orthogonalEdgeStyle;curved=1;rounded=0;orthogonalLoop=1;jettySize=auto;html=1;exitX=0.5;exitY=0;exitDx=0;exitDy=0;entryX=1;entryY=0.5;entryDx=0;entryDy=0;" edge="1" parent="B-oqDySQUaIhYDxuSMZ8-69" source="B-oqDySQUaIhYDxuSMZ8-14" target="B-oqDySQUaIhYDxuSMZ8-1">
          <mxGeometry relative="1" as="geometry" />
        </mxCell>
        <mxCell id="B-oqDySQUaIhYDxuSMZ8-20" value="p1,p2" style="edgeLabel;html=1;align=center;verticalAlign=middle;resizable=0;points=[];" connectable="0" vertex="1" parent="B-oqDySQUaIhYDxuSMZ8-18">
          <mxGeometry x="-0.362" y="8" relative="1" as="geometry">
            <mxPoint as="offset" />
          </mxGeometry>
        </mxCell>
        <mxCell id="B-oqDySQUaIhYDxuSMZ8-14" value="L3_On/001" style="ellipse;whiteSpace=wrap;html=1;" vertex="1" parent="B-oqDySQUaIhYDxuSMZ8-69">
          <mxGeometry x="300" y="350" width="80" height="80" as="geometry" />
        </mxCell>
        <mxCell id="B-oqDySQUaIhYDxuSMZ8-27" value="p1,p2/100" style="edgeStyle=orthogonalEdgeStyle;curved=1;rounded=0;orthogonalLoop=1;jettySize=auto;html=1;" edge="1" parent="B-oqDySQUaIhYDxuSMZ8-69" source="B-oqDySQUaIhYDxuSMZ8-28" target="B-oqDySQUaIhYDxuSMZ8-33">
          <mxGeometry relative="1" as="geometry">
            <mxPoint as="offset" />
          </mxGeometry>
        </mxCell>
        <mxCell id="B-oqDySQUaIhYDxuSMZ8-28" value="Ini" style="ellipse;whiteSpace=wrap;html=1;aspect=fixed;" vertex="1" parent="B-oqDySQUaIhYDxuSMZ8-69">
          <mxGeometry x="555" y="120" width="80" height="80" as="geometry" />
        </mxCell>
        <mxCell id="B-oqDySQUaIhYDxuSMZ8-29" value="" style="edgeStyle=orthogonalEdgeStyle;curved=1;rounded=0;orthogonalLoop=1;jettySize=auto;html=1;" edge="1" parent="B-oqDySQUaIhYDxuSMZ8-69" source="B-oqDySQUaIhYDxuSMZ8-33" target="B-oqDySQUaIhYDxuSMZ8-36">
          <mxGeometry relative="1" as="geometry" />
        </mxCell>
        <mxCell id="B-oqDySQUaIhYDxuSMZ8-30" value="p1/010" style="edgeLabel;html=1;align=center;verticalAlign=middle;resizable=0;points=[];" connectable="0" vertex="1" parent="B-oqDySQUaIhYDxuSMZ8-29">
          <mxGeometry x="0.1871" y="2" relative="1" as="geometry">
            <mxPoint x="-2" y="-7" as="offset" />
          </mxGeometry>
        </mxCell>
        <mxCell id="B-oqDySQUaIhYDxuSMZ8-31" value="" style="edgeStyle=orthogonalEdgeStyle;curved=1;rounded=0;orthogonalLoop=1;jettySize=auto;html=1;" edge="1" parent="B-oqDySQUaIhYDxuSMZ8-69" source="B-oqDySQUaIhYDxuSMZ8-33" target="B-oqDySQUaIhYDxuSMZ8-39">
          <mxGeometry relative="1" as="geometry" />
        </mxCell>
        <mxCell id="B-oqDySQUaIhYDxuSMZ8-41" value="p2/001" style="edgeLabel;html=1;align=center;verticalAlign=middle;resizable=0;points=[];" connectable="0" vertex="1" parent="B-oqDySQUaIhYDxuSMZ8-31">
          <mxGeometry x="0.0038" y="-2" relative="1" as="geometry">
            <mxPoint y="5" as="offset" />
          </mxGeometry>
        </mxCell>
        <mxCell id="B-oqDySQUaIhYDxuSMZ8-33" value="L1_On" style="ellipse;whiteSpace=wrap;html=1;aspect=fixed;" vertex="1" parent="B-oqDySQUaIhYDxuSMZ8-69">
          <mxGeometry x="555" y="280" width="80" height="80" as="geometry" />
        </mxCell>
        <mxCell id="B-oqDySQUaIhYDxuSMZ8-34" style="edgeStyle=orthogonalEdgeStyle;curved=1;rounded=0;orthogonalLoop=1;jettySize=auto;html=1;exitX=0.5;exitY=0;exitDx=0;exitDy=0;entryX=0;entryY=0.5;entryDx=0;entryDy=0;" edge="1" parent="B-oqDySQUaIhYDxuSMZ8-69" source="B-oqDySQUaIhYDxuSMZ8-36" target="B-oqDySQUaIhYDxuSMZ8-28">
          <mxGeometry relative="1" as="geometry" />
        </mxCell>
        <mxCell id="B-oqDySQUaIhYDxuSMZ8-35" value="p1,p2/000" style="edgeLabel;html=1;align=center;verticalAlign=middle;resizable=0;points=[];" connectable="0" vertex="1" parent="B-oqDySQUaIhYDxuSMZ8-34">
          <mxGeometry x="-0.3931" y="-6" relative="1" as="geometry">
            <mxPoint as="offset" />
          </mxGeometry>
        </mxCell>
        <mxCell id="B-oqDySQUaIhYDxuSMZ8-36" value="L2_On" style="ellipse;whiteSpace=wrap;html=1;" vertex="1" parent="B-oqDySQUaIhYDxuSMZ8-69">
          <mxGeometry x="415" y="350" width="80" height="80" as="geometry" />
        </mxCell>
        <mxCell id="B-oqDySQUaIhYDxuSMZ8-37" style="edgeStyle=orthogonalEdgeStyle;curved=1;rounded=0;orthogonalLoop=1;jettySize=auto;html=1;exitX=0.5;exitY=0;exitDx=0;exitDy=0;entryX=1;entryY=0.5;entryDx=0;entryDy=0;" edge="1" parent="B-oqDySQUaIhYDxuSMZ8-69" source="B-oqDySQUaIhYDxuSMZ8-39" target="B-oqDySQUaIhYDxuSMZ8-28">
          <mxGeometry relative="1" as="geometry" />
        </mxCell>
        <mxCell id="B-oqDySQUaIhYDxuSMZ8-38" value="X/000" style="edgeLabel;html=1;align=center;verticalAlign=middle;resizable=0;points=[];" connectable="0" vertex="1" parent="B-oqDySQUaIhYDxuSMZ8-37">
          <mxGeometry x="-0.362" y="8" relative="1" as="geometry">
            <mxPoint as="offset" />
          </mxGeometry>
        </mxCell>
        <mxCell id="B-oqDySQUaIhYDxuSMZ8-39" value="L3_On" style="ellipse;whiteSpace=wrap;html=1;" vertex="1" parent="B-oqDySQUaIhYDxuSMZ8-69">
          <mxGeometry x="695" y="350" width="80" height="80" as="geometry" />
        </mxCell>
        <mxCell id="B-oqDySQUaIhYDxuSMZ8-44" style="edgeStyle=orthogonalEdgeStyle;curved=1;rounded=0;orthogonalLoop=1;jettySize=auto;html=1;exitX=0;exitY=1;exitDx=0;exitDy=0;entryX=0.5;entryY=1;entryDx=0;entryDy=0;" edge="1" parent="B-oqDySQUaIhYDxuSMZ8-69" source="B-oqDySQUaIhYDxuSMZ8-5" target="B-oqDySQUaIhYDxuSMZ8-5">
          <mxGeometry relative="1" as="geometry">
            <Array as="points">
              <mxPoint x="172" y="380" />
              <mxPoint x="200" y="380" />
            </Array>
          </mxGeometry>
        </mxCell>
        <mxCell id="B-oqDySQUaIhYDxuSMZ8-45" value="null" style="edgeLabel;html=1;align=center;verticalAlign=middle;resizable=0;points=[];" connectable="0" vertex="1" parent="B-oqDySQUaIhYDxuSMZ8-44">
          <mxGeometry x="0.1476" y="-1" relative="1" as="geometry">
            <mxPoint y="-1" as="offset" />
          </mxGeometry>
        </mxCell>
        <mxCell id="B-oqDySQUaIhYDxuSMZ8-46" style="edgeStyle=orthogonalEdgeStyle;curved=1;rounded=0;orthogonalLoop=1;jettySize=auto;html=1;exitX=0;exitY=0;exitDx=0;exitDy=0;entryX=0.5;entryY=0;entryDx=0;entryDy=0;" edge="1" parent="B-oqDySQUaIhYDxuSMZ8-69" source="B-oqDySQUaIhYDxuSMZ8-1" target="B-oqDySQUaIhYDxuSMZ8-1">
          <mxGeometry relative="1" as="geometry">
            <Array as="points">
              <mxPoint x="172" y="90" />
              <mxPoint x="200" y="90" />
            </Array>
          </mxGeometry>
        </mxCell>
        <mxCell id="B-oqDySQUaIhYDxuSMZ8-47" value="null" style="edgeLabel;html=1;align=center;verticalAlign=middle;resizable=0;points=[];" connectable="0" vertex="1" parent="B-oqDySQUaIhYDxuSMZ8-46">
          <mxGeometry x="0.0543" y="-3" relative="1" as="geometry">
            <mxPoint y="-13" as="offset" />
          </mxGeometry>
        </mxCell>
        <mxCell id="B-oqDySQUaIhYDxuSMZ8-48" style="edgeStyle=orthogonalEdgeStyle;curved=1;rounded=0;orthogonalLoop=1;jettySize=auto;html=1;exitX=1;exitY=1;exitDx=0;exitDy=0;entryX=0.5;entryY=1;entryDx=0;entryDy=0;" edge="1" parent="B-oqDySQUaIhYDxuSMZ8-69" source="B-oqDySQUaIhYDxuSMZ8-7" target="B-oqDySQUaIhYDxuSMZ8-7">
          <mxGeometry relative="1" as="geometry">
            <Array as="points">
              <mxPoint x="88" y="450" />
              <mxPoint x="60" y="450" />
            </Array>
          </mxGeometry>
        </mxCell>
        <mxCell id="B-oqDySQUaIhYDxuSMZ8-50" value="null" style="edgeLabel;html=1;align=center;verticalAlign=middle;resizable=0;points=[];" connectable="0" vertex="1" parent="B-oqDySQUaIhYDxuSMZ8-48">
          <mxGeometry x="0.2166" y="2" relative="1" as="geometry">
            <mxPoint y="8" as="offset" />
          </mxGeometry>
        </mxCell>
        <mxCell id="B-oqDySQUaIhYDxuSMZ8-49" style="edgeStyle=orthogonalEdgeStyle;curved=1;rounded=0;orthogonalLoop=1;jettySize=auto;html=1;exitX=0;exitY=1;exitDx=0;exitDy=0;entryX=0.5;entryY=1;entryDx=0;entryDy=0;" edge="1" parent="B-oqDySQUaIhYDxuSMZ8-69" source="B-oqDySQUaIhYDxuSMZ8-14" target="B-oqDySQUaIhYDxuSMZ8-14">
          <mxGeometry relative="1" as="geometry">
            <Array as="points">
              <mxPoint x="312" y="450" />
              <mxPoint x="340" y="450" />
            </Array>
          </mxGeometry>
        </mxCell>
        <mxCell id="B-oqDySQUaIhYDxuSMZ8-51" value="null" style="edgeLabel;html=1;align=center;verticalAlign=middle;resizable=0;points=[];" connectable="0" vertex="1" parent="B-oqDySQUaIhYDxuSMZ8-49">
          <mxGeometry x="0.0982" relative="1" as="geometry">
            <mxPoint y="10" as="offset" />
          </mxGeometry>
        </mxCell>
        <mxCell id="B-oqDySQUaIhYDxuSMZ8-53" style="edgeStyle=orthogonalEdgeStyle;curved=1;rounded=0;orthogonalLoop=1;jettySize=auto;html=1;exitX=1;exitY=1;exitDx=0;exitDy=0;entryX=0.5;entryY=1;entryDx=0;entryDy=0;" edge="1" parent="B-oqDySQUaIhYDxuSMZ8-69" source="B-oqDySQUaIhYDxuSMZ8-36" target="B-oqDySQUaIhYDxuSMZ8-36">
          <mxGeometry relative="1" as="geometry">
            <Array as="points">
              <mxPoint x="483" y="450" />
              <mxPoint x="455" y="450" />
            </Array>
          </mxGeometry>
        </mxCell>
        <mxCell id="B-oqDySQUaIhYDxuSMZ8-59" value="null/010" style="edgeLabel;html=1;align=center;verticalAlign=middle;resizable=0;points=[];" connectable="0" vertex="1" parent="B-oqDySQUaIhYDxuSMZ8-53">
          <mxGeometry x="0.0362" y="-1" relative="1" as="geometry">
            <mxPoint x="7" y="11" as="offset" />
          </mxGeometry>
        </mxCell>
        <mxCell id="B-oqDySQUaIhYDxuSMZ8-54" style="edgeStyle=orthogonalEdgeStyle;curved=1;rounded=0;orthogonalLoop=1;jettySize=auto;html=1;exitX=0;exitY=1;exitDx=0;exitDy=0;entryX=0.5;entryY=1;entryDx=0;entryDy=0;" edge="1" parent="B-oqDySQUaIhYDxuSMZ8-69" source="B-oqDySQUaIhYDxuSMZ8-39" target="B-oqDySQUaIhYDxuSMZ8-39">
          <mxGeometry relative="1" as="geometry">
            <Array as="points">
              <mxPoint x="707" y="450" />
              <mxPoint x="735" y="450" />
            </Array>
          </mxGeometry>
        </mxCell>
        <mxCell id="B-oqDySQUaIhYDxuSMZ8-60" value="null/001" style="edgeLabel;html=1;align=center;verticalAlign=middle;resizable=0;points=[];" connectable="0" vertex="1" parent="B-oqDySQUaIhYDxuSMZ8-54">
          <mxGeometry x="0.0089" y="1" relative="1" as="geometry">
            <mxPoint x="5" y="11" as="offset" />
          </mxGeometry>
        </mxCell>
        <mxCell id="B-oqDySQUaIhYDxuSMZ8-55" style="edgeStyle=orthogonalEdgeStyle;curved=1;rounded=0;orthogonalLoop=1;jettySize=auto;html=1;exitX=0;exitY=1;exitDx=0;exitDy=0;entryX=0.5;entryY=1;entryDx=0;entryDy=0;" edge="1" parent="B-oqDySQUaIhYDxuSMZ8-69" source="B-oqDySQUaIhYDxuSMZ8-33" target="B-oqDySQUaIhYDxuSMZ8-33">
          <mxGeometry relative="1" as="geometry">
            <Array as="points">
              <mxPoint x="567" y="380" />
              <mxPoint x="595" y="380" />
            </Array>
          </mxGeometry>
        </mxCell>
        <mxCell id="B-oqDySQUaIhYDxuSMZ8-58" value="null/000" style="edgeLabel;html=1;align=center;verticalAlign=middle;resizable=0;points=[];" connectable="0" vertex="1" parent="B-oqDySQUaIhYDxuSMZ8-55">
          <mxGeometry x="0.2135" y="2" relative="1" as="geometry">
            <mxPoint y="12" as="offset" />
          </mxGeometry>
        </mxCell>
        <mxCell id="B-oqDySQUaIhYDxuSMZ8-56" style="edgeStyle=orthogonalEdgeStyle;curved=1;rounded=0;orthogonalLoop=1;jettySize=auto;html=1;exitX=0;exitY=0;exitDx=0;exitDy=0;entryX=0.5;entryY=0;entryDx=0;entryDy=0;" edge="1" parent="B-oqDySQUaIhYDxuSMZ8-69" source="B-oqDySQUaIhYDxuSMZ8-28" target="B-oqDySQUaIhYDxuSMZ8-28">
          <mxGeometry relative="1" as="geometry">
            <Array as="points">
              <mxPoint x="567" y="90" />
              <mxPoint x="595" y="90" />
            </Array>
          </mxGeometry>
        </mxCell>
        <mxCell id="B-oqDySQUaIhYDxuSMZ8-57" value="null/000" style="edgeLabel;html=1;align=center;verticalAlign=middle;resizable=0;points=[];" connectable="0" vertex="1" parent="B-oqDySQUaIhYDxuSMZ8-56">
          <mxGeometry x="0.0799" y="-3" relative="1" as="geometry">
            <mxPoint y="-13" as="offset" />
          </mxGeometry>
        </mxCell>
        <mxCell id="B-oqDySQUaIhYDxuSMZ8-61" value="&lt;font style=&quot;font-size: 20px;&quot;&gt;Moore&lt;/font&gt;" style="text;html=1;align=center;verticalAlign=middle;resizable=0;points=[];autosize=1;strokeColor=none;fillColor=none;strokeWidth=5;" vertex="1" parent="B-oqDySQUaIhYDxuSMZ8-69">
          <mxGeometry x="160" y="33" width="80" height="40" as="geometry" />
        </mxCell>
        <mxCell id="B-oqDySQUaIhYDxuSMZ8-62" value="&lt;font style=&quot;font-size: 20px;&quot;&gt;Mealy&lt;/font&gt;" style="text;html=1;align=center;verticalAlign=middle;resizable=0;points=[];autosize=1;strokeColor=none;fillColor=none;" vertex="1" parent="B-oqDySQUaIhYDxuSMZ8-69">
          <mxGeometry x="555" y="33" width="80" height="40" as="geometry" />
        </mxCell>
        <mxCell id="B-oqDySQUaIhYDxuSMZ8-66" value="&lt;font style=&quot;font-size: 20px;&quot;&gt;Maquina de Estados&lt;/font&gt;" style="text;html=1;align=center;verticalAlign=middle;resizable=0;points=[];autosize=1;strokeColor=none;fillColor=none;strokeWidth=5;" vertex="1" parent="B-oqDySQUaIhYDxuSMZ8-69">
          <mxGeometry x="285" width="210" height="40" as="geometry" />
        </mxCell>
        <mxCell id="B-oqDySQUaIhYDxuSMZ8-70" value="Elías Álvarez - Y24127" style="text;html=1;align=center;verticalAlign=middle;resizable=0;points=[];autosize=1;strokeColor=none;fillColor=none;" vertex="1" parent="B-oqDySQUaIhYDxuSMZ8-69">
          <mxGeometry x="640" y="10" width="150" height="30" as="geometry" />
        </mxCell>
      </root>
    </mxGraphModel>
  </diagram>
</mxfile>
